8_ID_stride6.mot
nRows=15
nColumns=38

name 8_ID_stride6.mot
datacolumns 38
datarows 15
range 3.6300000000 3.7000000000
endheader
time	pelvis_tilt_moment	pelvis_list_moment	pelvis_rotation_moment	pelvis_tx_force	pelvis_ty_force	pelvis_tz_force	hip_flexion_r_moment	hip_adduction_r_moment	hip_rotation_r_moment	knee_angle_r_moment	ankle_angle_r_moment	subtalar_angle_r_moment	mtp_angle_r_moment	hip_flexion_l_moment	hip_adduction_l_moment	hip_rotation_l_moment	knee_angle_l_moment	ankle_angle_l_moment	subtalar_angle_l_moment	mtp_angle_l_moment	lumbar_extension_moment	lumbar_bending_moment	lumbar_rotation_moment	arm_flex_r_moment	arm_add_r_moment	arm_rot_r_moment	elbow_flex_r_moment	pro_sup_r_moment	wrist_flex_r_moment	wrist_dev_r_moment	arm_flex_l_moment	arm_add_l_moment	arm_rot_l_moment	elbow_flex_l_moment	pro_sup_l_moment	wrist_flex_l_moment	wrist_dev_l_moment
        3.6300000000	       -2.8032849703	      -78.4990893958	       -6.7222389714	      106.9593835660	      -81.0580589501	       56.1851402738	     -100.0217722341	      -12.2444969247	       -1.7350620105	      -59.6804906983	       -1.3454928278	       -0.0693829255	       -0.0268977211	       64.5654321917	      -21.9731855398	        6.7414046460	       24.1481648502	        5.3766285270	       -1.0647950331	        0.3186982993	      -45.4611411834	       -5.0388874820	        7.3675003193	       -1.0401355870	       -0.1403795432	        0.5081498783	       -1.7111718628	        0.0590451380	        0.0290159563	        0.2014789554	       -3.4029278583	       -0.2564823175	       -0.1652238507	       -2.2367573763	        0.0201863889	       -0.0846498025	        0.2122844242	
        3.6350000000	        4.7098921631	      -79.8460550415	       -4.7387839799	       38.5340592705	      152.2519618046	      119.3105137864	      -83.1510239819	       -3.0689628894	       -1.1321212496	      -57.0703568627	       -0.6095960268	       -0.4419818029	        0.0529602555	       53.9061583956	      -18.0949948538	        6.2016493765	       23.0850211429	        5.1413184431	       -0.9747576240	        0.3062489458	      -32.0065261436	      -13.1069089674	        6.6250000990	       -2.8427637638	        0.2729746336	        0.8741608996	       -1.4382031406	        0.0605055284	        0.0663773849	        0.2002187395	       -5.1762816156	       -0.4971303382	       -0.0313822822	       -1.9396782940	        0.0186084196	       -0.0592428533	        0.2065136461	
        3.6400000000	       26.7675965966	      -13.6978893157	        0.8339311353	      -23.2510433610	      308.1896815470	      127.7423684929	      -26.3310292375	       -8.3329297648	        5.1835948720	      -17.9808290857	       13.1756021215	        8.3436314158	        0.1429468517	       45.8350959845	      -15.6046709993	        5.9612607259	       21.6072652050	        4.9075074323	       -0.9049345159	        0.2911171379	       -8.9488357925	      -24.1635095630	        5.8780359735	       -4.6182201300	        0.9711686036	        1.3604795258	       -0.7261973490	        0.0570592506	        0.1223837864	        0.1542248049	       -6.8905966930	       -0.8392471954	        0.0456150016	       -1.1830938910	        0.0066680326	       -0.0286908269	        0.1511773811	
        3.6450000000	       54.9732742238	       19.2189342533	        8.4926054100	      -86.3638023202	      431.8757494748	      123.5276304749	      -13.8898385790	      -22.9950519178	       21.0259075821	       -3.2997805983	       11.0543177852	       16.2191982580	        0.2327489209	       44.1174705406	      -13.7605539783	        5.8399538080	       20.3045396448	        4.7233441887	       -0.8546941343	        0.2755353079	       17.1392694300	      -35.7068903466	        5.1732598669	       -5.9461792123	        1.7901768392	        1.8555384579	        0.2410096835	        0.0489135527	        0.1839249492	        0.0820457655	       -8.1348918422	       -1.1974694575	        0.0479680773	       -0.1652111362	       -0.0112372448	        0.0017858374	        0.0678527839	
        3.6500000000	       83.3443757768	       47.2357692673	       16.6444171670	     -115.7727541765	      435.2272292698	       89.3083382454	      -16.8865706389	      -43.5349907619	       39.2969793407	        7.5730193090	        2.0216725682	       24.4933427541	        0.3117511930	       47.2348023970	      -11.6455640248	        5.5588098865	       20.0598713027	        4.6061156391	       -0.8124542030	        0.2606744587	       39.9537023492	      -43.8917196765	        4.5548596596	       -6.2963110107	        2.4994856126	        2.1958630054	        1.2525008252	        0.0367375294	        0.2352538011	       -0.0013072841	       -8.2975323473	       -1.3549080178	        0.0385135601	        0.8954565272	       -0.0307015778	        0.0282579344	       -0.0249259711	
        3.6550000000	       90.3381196720	       52.5742124872	       23.8630732722	     -110.8203816261	      375.5368105841	       25.4135237778	      -34.2485855865	      -62.1670612856	       53.6570684797	       10.2674271609	      -15.7882823881	       32.1376210427	        0.3627016481	       55.6479399486	       -8.6677786218	        4.9134864908	       20.3679391998	        4.5283907009	       -0.7663550240	        0.2464109900	       50.2794768989	      -44.5393050251	        4.2391546966	       -6.1122700086	        2.6300094364	        2.2245357864	        2.0174770028	        0.0221667784	        0.2456318283	       -0.0724111113	       -8.0408506276	       -1.2811198279	        0.0527826825	        1.7064383678	       -0.0436236159	        0.0490904778	       -0.0993883363	
        3.6600000000	       90.4744353250	       44.7553451334	       30.0002344588	      -61.4783554418	      190.4341336457	      -37.0900925341	      -74.0328803562	      -74.2278274739	       62.3902176455	       10.4319533928	      -39.4533416644	       38.6404133186	        0.3894004187	       66.3334482375	       -4.6037962516	        3.7996824474	       21.9318075865	        4.4633846397	       -0.7112724749	        0.2323636143	       53.8003756869	      -38.8366861014	        4.1150251608	       -5.0293387769	        2.4593519945	        2.0068960547	        2.4742316214	        0.0067499657	        0.2399452634	       -0.1232938253	       -6.7959258659	       -0.7723816865	        0.1578276391	        2.2137913563	       -0.0501086758	        0.0655010004	       -0.1478257665	
        3.6650000000	       66.5326376172	       18.1642114977	       35.3556371704	       16.4419604988	      -31.3601746685	      -72.4232668923	     -119.4283235097	      -72.4344052439	       61.8999059455	       11.4685911665	      -60.9999649574	       43.7478343401	        0.3783422582	       75.2153021379	        0.1909777681	        2.4355062346	       23.8542017557	        4.3622163974	       -0.6462643322	        0.2178526974	       46.7466527133	      -25.3099165477	        4.5381026738	       -3.6534476792	        1.7239506105	        1.5208645919	        2.5076205058	       -0.0076702039	        0.2025580394	       -0.1444068325	       -5.3553604020	        0.0701995801	        0.3603052499	        2.3181084867	       -0.0464181130	        0.0785226770	       -0.1596777259	
        3.6700000000	       25.7837440394	      -14.5778856929	       40.2379383836	      103.3614297368	     -245.7209141114	      -69.6237273448	     -159.6347217037	      -62.6558013881	       57.1423750422	       18.3878286834	      -75.7542236186	       47.2278774269	        0.3438578081	       79.4880958294	        4.8035171021	        1.1393303991	       25.7215221393	        4.2208606124	       -0.5838201752	        0.2040621459	       35.2965215401	       -7.4604855569	        5.6324586077	       -2.2009964287	        0.7152333500	        0.9406908523	        2.4190578093	       -0.0200542374	        0.1531793526	       -0.1496359425	       -3.9638334044	        1.0801984889	        0.6112359889	        2.2813224004	       -0.0391007907	        0.0870005771	       -0.1574485896	
        3.6750000000	      -18.3113222930	      -37.5766099673	       44.4286923938	      172.0709187745	     -393.2552244946	      -48.4168134856	     -180.0281919012	      -45.8734503064	       48.3418346164	       35.7249910334	      -83.6464821855	       49.0285164541	        0.2881958176	       79.5472990797	        8.2319822815	        0.2242164159	       26.8959432008	        4.0553485968	       -0.5359344816	        0.1929754334	       26.3360764381	        9.3496331306	        7.5795658932	       -0.8678582391	       -0.0358473283	        0.5734638630	        2.4044092699	       -0.0296554753	        0.1313681411	       -0.1578385921	       -2.8729801479	        1.9261245633	        0.7018871486	        2.3067292461	       -0.0377731401	        0.0873199431	       -0.1611983730	
        3.6800000000	      -52.1077242631	      -44.0433601705	       47.9719394924	      196.3867912444	     -438.6986305274	      -20.9860424751	     -183.2058876315	      -30.5637011027	       41.4869770140	       62.5224736089	      -88.5379750071	       49.9717497829	        0.2253672530	       76.1304884459	        9.4686146003	       -0.2374785428	       27.1894837548	        3.8987063981	       -0.5049939642	        0.1882981678	       23.9248551521	       17.9985248373	       10.4555888512	        0.3189985057	       -0.2243921213	        0.5084509582	        2.6697908054	       -0.0360688054	        0.1337402314	       -0.1860809527	       -2.1385579382	        2.2277298822	        0.6709575747	        2.6226006597	       -0.0454384624	        0.0775330678	       -0.1949021919	
        3.6850000000	      -67.7256365564	      -34.1741431431	       51.3832516341	      185.3626497086	     -394.4217911086	       -9.4576743352	     -165.5793727534	      -21.8518486043	       38.7715175293	       93.5444468681	      -94.1060734128	       50.8676613571	        0.1659899506	       70.7634288898	        9.4651275637	       -0.4346688581	       26.4877664014	        3.7810954782	       -0.4837940944	        0.1880321536	       30.1427930599	       19.3645639449	       14.1765967761	        1.4341982147	        0.4384975883	        0.9470263457	        3.5158256586	       -0.0391256458	        0.1983945355	       -0.2524479496	       -1.6763114238	        2.0061996270	        0.2351395123	        3.4503750181	       -0.0743490204	        0.0490150007	       -0.2808027820	
        3.6900000000	      -58.8564619476	      -12.6489381324	       56.0211209677	      121.4279634032	     -245.4707527266	      -30.7734979108	     -138.7661344288	      -21.3630233685	       43.0276044899	      121.9889700733	     -105.2171135469	       53.5508219955	        0.1168034573	       65.8909991738	        7.8679643164	       -0.6901576788	       24.7717530737	        3.7158287509	       -0.4543203622	        0.1955751840	       45.7033168124	        7.2432304726	       18.4881395817	        2.6153452293	        2.1090293353	        1.8856240343	        4.8991939507	       -0.0388891604	        0.3134773441	       -0.3579453611	       -1.3476889010	        0.9573911089	       -0.5472480204	        4.7506049579	       -0.1222745053	        0.0025442829	       -0.4169968958	
        3.6950000000	      -38.1710172954	        8.6818742156	       62.3886951088	       30.6907526137	      -50.7125288659	      -72.7204818562	     -114.0653330856	      -23.2837296864	       50.9881063798	      142.1907475767	     -120.9207411824	       57.9201115763	        0.0810460288	       62.3770907292	        5.9330021271	       -1.2143668544	       22.4803588646	        3.6721566809	       -0.4051819406	        0.2067922119	       65.7849825065	      -12.9593886115	       22.8895327125	        3.9108021039	        4.3720057430	        3.1014966194	        6.5916286943	       -0.0375461842	        0.4570358276	       -0.4858337322	       -0.9922341802	       -0.5616711975	       -1.5457116628	        6.2979847482	       -0.1814281917	       -0.0552742194	       -0.5807069049	
        3.7000000000	       -2.8626276500	       22.8262536706	       70.8439344457	      -70.4952629874	      149.0333203364	     -135.8183307130	      -97.5835783407	      -31.1702587827	       62.2650662109	      153.5428248000	     -140.8843266002	       63.9804064512	        0.0577895976	       59.8870105513	        4.4175481907	       -2.2166454935	       19.8312834029	        3.6262038021	       -0.3250375735	        0.2185847442	       87.0605819099	      -39.0503285992	       26.9944668151	        5.3082740347	        6.9459633762	        4.4330252488	        8.4086034211	       -0.0338238739	        0.6111648154	       -0.6227997784	       -0.5603409218	       -2.3273261790	       -2.6477494636	        7.9100007472	       -0.2453604973	       -0.1188841241	       -0.7534659218	
